<?xml version="1.0" encoding="utf-8" standalone="no"?>
<!DOCTYPE svg PUBLIC "-//W3C//DTD SVG 1.1//EN"
  "http://www.w3.org/Graphics/SVG/1.1/DTD/svg11.dtd">
<svg xmlns:xlink="http://www.w3.org/1999/xlink" width="720pt" height="432pt" viewBox="0 0 720 432" xmlns="http://www.w3.org/2000/svg" version="1.1">
 <metadata>
  <rdf:RDF xmlns:dc="http://purl.org/dc/elements/1.1/" xmlns:cc="http://creativecommons.org/ns#" xmlns:rdf="http://www.w3.org/1999/02/22-rdf-syntax-ns#">
   <cc:Work>
    <dc:type rdf:resource="http://purl.org/dc/dcmitype/StillImage"/>
    <dc:date>2023-11-06T17:52:52.906726</dc:date>
    <dc:format>image/svg+xml</dc:format>
    <dc:creator>
     <cc:Agent>
      <dc:title>Matplotlib v3.5.3, https://matplotlib.org/</dc:title>
     </cc:Agent>
    </dc:creator>
   </cc:Work>
  </rdf:RDF>
 </metadata>
 <defs>
  <style type="text/css">*{stroke-linejoin: round; stroke-linecap: butt}</style>
 </defs>
 <g id="figure_1">
  <g id="patch_1">
   <path d="M 0 432 
L 720 432 
L 720 0 
L 0 0 
L 0 432 
z
" style="fill: none"/>
  </g>
  <g id="axes_1">
   <g id="patch_2">
    <path d="M 90 378 
L 648 378 
L 648 51.84 
L 90 51.84 
z
" style="fill: #ffffff"/>
   </g>
   <g id="PolyCollection_1">
    <defs>
     <path id="m8cf1d36d4b" d="M 101.87234 -218.697848 
L 101.87234 -74.914466 
L 161.234043 -77.435872 
L 220.595745 -82.423126 
L 279.957447 -65.770367 
L 339.319149 -63.586674 
L 398.680851 -64.281683 
L 458.042553 -62.485405 
L 517.404255 -58.591825 
L 576.765957 -56.202461 
L 636.12766 -54.548029 
L 636.12766 -152.877147 
L 636.12766 -152.877147 
L 576.765957 -133.989859 
L 517.404255 -126.96464 
L 458.042553 -121.217073 
L 398.680851 -127.571843 
L 339.319149 -134.307756 
L 279.957447 -122.407838 
L 220.595745 -285.216323 
L 161.234043 -263.303247 
L 101.87234 -218.697848 
z
" style="stroke: #b42b2e; stroke-opacity: 0.1"/>
    </defs>
    <g clip-path="url(#p4ccfe46605)">
     <use xlink:href="#m8cf1d36d4b" x="0" y="432" style="fill: #b42b2e; fill-opacity: 0.1; stroke: #b42b2e; stroke-opacity: 0.1"/>
    </g>
   </g>
   <g id="PolyCollection_2">
    <defs>
     <path id="mc3fb924eed" d="M 101.87234 -347.662485 
L 101.87234 -210.746114 
L 161.234043 -238.366032 
L 220.595745 -251.236539 
L 279.957447 -178.264573 
L 339.319149 -163.107103 
L 398.680851 -159.369045 
L 458.042553 -172.050616 
L 517.404255 -177.661329 
L 576.765957 -187.331624 
L 636.12766 -199.900163 
L 636.12766 -370.780193 
L 636.12766 -370.780193 
L 576.765957 -367.922688 
L 517.404255 -365.149916 
L 458.042553 -356.992293 
L 398.680851 -346.82189 
L 339.319149 -343.004073 
L 279.957447 -337.79097 
L 220.595745 -364.06809 
L 161.234043 -362.632385 
L 101.87234 -347.662485 
z
" style="stroke: #006f39; stroke-opacity: 0.1"/>
    </defs>
    <g clip-path="url(#p4ccfe46605)">
     <use xlink:href="#mc3fb924eed" x="0" y="432" style="fill: #006f39; fill-opacity: 0.1; stroke: #006f39; stroke-opacity: 0.1"/>
    </g>
   </g>
   <g id="matplotlib.axis_1">
    <g id="xtick_1">
     <g id="line2d_1">
      <path d="M 101.87234 378 
L 101.87234 51.84 
" clip-path="url(#p4ccfe46605)" style="fill: none; stroke: #cccccc; stroke-width: 0.8; stroke-linecap: square"/>
     </g>
     <g id="line2d_2">
      <defs>
       <path id="me6083387ed" d="M 0 0 
L 0 3.5 
" style="stroke: #000000; stroke-width: 0.8"/>
      </defs>
      <g>
       <use xlink:href="#me6083387ed" x="101.87234" y="378" style="stroke: #000000; stroke-width: 0.8"/>
      </g>
     </g>
     <g id="text_1">
      <!-- [1-50] -->
      <g transform="translate(86.623122 392.598437)scale(0.1 -0.1)">
       <defs>
        <path id="DejaVuSans-5b" d="M 550 4863 
L 1875 4863 
L 1875 4416 
L 1125 4416 
L 1125 -397 
L 1875 -397 
L 1875 -844 
L 550 -844 
L 550 4863 
z
" transform="scale(0.015625)"/>
        <path id="DejaVuSans-31" d="M 794 531 
L 1825 531 
L 1825 4091 
L 703 3866 
L 703 4441 
L 1819 4666 
L 2450 4666 
L 2450 531 
L 3481 531 
L 3481 0 
L 794 0 
L 794 531 
z
" transform="scale(0.015625)"/>
        <path id="DejaVuSans-2d" d="M 313 2009 
L 1997 2009 
L 1997 1497 
L 313 1497 
L 313 2009 
z
" transform="scale(0.015625)"/>
        <path id="DejaVuSans-35" d="M 691 4666 
L 3169 4666 
L 3169 4134 
L 1269 4134 
L 1269 2991 
Q 1406 3038 1543 3061 
Q 1681 3084 1819 3084 
Q 2600 3084 3056 2656 
Q 3513 2228 3513 1497 
Q 3513 744 3044 326 
Q 2575 -91 1722 -91 
Q 1428 -91 1123 -41 
Q 819 9 494 109 
L 494 744 
Q 775 591 1075 516 
Q 1375 441 1709 441 
Q 2250 441 2565 725 
Q 2881 1009 2881 1497 
Q 2881 1984 2565 2268 
Q 2250 2553 1709 2553 
Q 1456 2553 1204 2497 
Q 953 2441 691 2322 
L 691 4666 
z
" transform="scale(0.015625)"/>
        <path id="DejaVuSans-30" d="M 2034 4250 
Q 1547 4250 1301 3770 
Q 1056 3291 1056 2328 
Q 1056 1369 1301 889 
Q 1547 409 2034 409 
Q 2525 409 2770 889 
Q 3016 1369 3016 2328 
Q 3016 3291 2770 3770 
Q 2525 4250 2034 4250 
z
M 2034 4750 
Q 2819 4750 3233 4129 
Q 3647 3509 3647 2328 
Q 3647 1150 3233 529 
Q 2819 -91 2034 -91 
Q 1250 -91 836 529 
Q 422 1150 422 2328 
Q 422 3509 836 4129 
Q 1250 4750 2034 4750 
z
" transform="scale(0.015625)"/>
        <path id="DejaVuSans-5d" d="M 1947 4863 
L 1947 -844 
L 622 -844 
L 622 -397 
L 1369 -397 
L 1369 4416 
L 622 4416 
L 622 4863 
L 1947 4863 
z
" transform="scale(0.015625)"/>
       </defs>
       <use xlink:href="#DejaVuSans-5b"/>
       <use xlink:href="#DejaVuSans-31" x="39.013672"/>
       <use xlink:href="#DejaVuSans-2d" x="102.636719"/>
       <use xlink:href="#DejaVuSans-35" x="138.720703"/>
       <use xlink:href="#DejaVuSans-30" x="202.34375"/>
       <use xlink:href="#DejaVuSans-5d" x="265.966797"/>
      </g>
     </g>
    </g>
    <g id="xtick_2">
     <g id="line2d_3">
      <path d="M 161.234043 378 
L 161.234043 51.84 
" clip-path="url(#p4ccfe46605)" style="fill: none; stroke: #cccccc; stroke-width: 0.8; stroke-linecap: square"/>
     </g>
     <g id="line2d_4">
      <g>
       <use xlink:href="#me6083387ed" x="161.234043" y="378" style="stroke: #000000; stroke-width: 0.8"/>
      </g>
     </g>
     <g id="text_2">
      <!-- [51-100] -->
      <g transform="translate(139.622324 392.598437)scale(0.1 -0.1)">
       <use xlink:href="#DejaVuSans-5b"/>
       <use xlink:href="#DejaVuSans-35" x="39.013672"/>
       <use xlink:href="#DejaVuSans-31" x="102.636719"/>
       <use xlink:href="#DejaVuSans-2d" x="166.259766"/>
       <use xlink:href="#DejaVuSans-31" x="202.34375"/>
       <use xlink:href="#DejaVuSans-30" x="265.966797"/>
       <use xlink:href="#DejaVuSans-30" x="329.589844"/>
       <use xlink:href="#DejaVuSans-5d" x="393.212891"/>
      </g>
     </g>
    </g>
    <g id="xtick_3">
     <g id="line2d_5">
      <path d="M 220.595745 378 
L 220.595745 51.84 
" clip-path="url(#p4ccfe46605)" style="fill: none; stroke: #cccccc; stroke-width: 0.8; stroke-linecap: square"/>
     </g>
     <g id="line2d_6">
      <g>
       <use xlink:href="#me6083387ed" x="220.595745" y="378" style="stroke: #000000; stroke-width: 0.8"/>
      </g>
     </g>
     <g id="text_3">
      <!-- [101-150] -->
      <g transform="translate(195.802776 392.598437)scale(0.1 -0.1)">
       <use xlink:href="#DejaVuSans-5b"/>
       <use xlink:href="#DejaVuSans-31" x="39.013672"/>
       <use xlink:href="#DejaVuSans-30" x="102.636719"/>
       <use xlink:href="#DejaVuSans-31" x="166.259766"/>
       <use xlink:href="#DejaVuSans-2d" x="229.882812"/>
       <use xlink:href="#DejaVuSans-31" x="265.966797"/>
       <use xlink:href="#DejaVuSans-35" x="329.589844"/>
       <use xlink:href="#DejaVuSans-30" x="393.212891"/>
       <use xlink:href="#DejaVuSans-5d" x="456.835938"/>
      </g>
     </g>
    </g>
    <g id="xtick_4">
     <g id="line2d_7">
      <path d="M 279.957447 378 
L 279.957447 51.84 
" clip-path="url(#p4ccfe46605)" style="fill: none; stroke: #cccccc; stroke-width: 0.8; stroke-linecap: square"/>
     </g>
     <g id="line2d_8">
      <g>
       <use xlink:href="#me6083387ed" x="279.957447" y="378" style="stroke: #000000; stroke-width: 0.8"/>
      </g>
     </g>
     <g id="text_4">
      <!-- [151-200] -->
      <g transform="translate(255.164478 392.598437)scale(0.1 -0.1)">
       <defs>
        <path id="DejaVuSans-32" d="M 1228 531 
L 3431 531 
L 3431 0 
L 469 0 
L 469 531 
Q 828 903 1448 1529 
Q 2069 2156 2228 2338 
Q 2531 2678 2651 2914 
Q 2772 3150 2772 3378 
Q 2772 3750 2511 3984 
Q 2250 4219 1831 4219 
Q 1534 4219 1204 4116 
Q 875 4013 500 3803 
L 500 4441 
Q 881 4594 1212 4672 
Q 1544 4750 1819 4750 
Q 2544 4750 2975 4387 
Q 3406 4025 3406 3419 
Q 3406 3131 3298 2873 
Q 3191 2616 2906 2266 
Q 2828 2175 2409 1742 
Q 1991 1309 1228 531 
z
" transform="scale(0.015625)"/>
       </defs>
       <use xlink:href="#DejaVuSans-5b"/>
       <use xlink:href="#DejaVuSans-31" x="39.013672"/>
       <use xlink:href="#DejaVuSans-35" x="102.636719"/>
       <use xlink:href="#DejaVuSans-31" x="166.259766"/>
       <use xlink:href="#DejaVuSans-2d" x="229.882812"/>
       <use xlink:href="#DejaVuSans-32" x="265.966797"/>
       <use xlink:href="#DejaVuSans-30" x="329.589844"/>
       <use xlink:href="#DejaVuSans-30" x="393.212891"/>
       <use xlink:href="#DejaVuSans-5d" x="456.835938"/>
      </g>
     </g>
    </g>
    <g id="xtick_5">
     <g id="line2d_9">
      <path d="M 339.319149 378 
L 339.319149 51.84 
" clip-path="url(#p4ccfe46605)" style="fill: none; stroke: #cccccc; stroke-width: 0.8; stroke-linecap: square"/>
     </g>
     <g id="line2d_10">
      <g>
       <use xlink:href="#me6083387ed" x="339.319149" y="378" style="stroke: #000000; stroke-width: 0.8"/>
      </g>
     </g>
     <g id="text_5">
      <!-- [201-250] -->
      <g transform="translate(314.52618 392.598437)scale(0.1 -0.1)">
       <use xlink:href="#DejaVuSans-5b"/>
       <use xlink:href="#DejaVuSans-32" x="39.013672"/>
       <use xlink:href="#DejaVuSans-30" x="102.636719"/>
       <use xlink:href="#DejaVuSans-31" x="166.259766"/>
       <use xlink:href="#DejaVuSans-2d" x="229.882812"/>
       <use xlink:href="#DejaVuSans-32" x="265.966797"/>
       <use xlink:href="#DejaVuSans-35" x="329.589844"/>
       <use xlink:href="#DejaVuSans-30" x="393.212891"/>
       <use xlink:href="#DejaVuSans-5d" x="456.835938"/>
      </g>
     </g>
    </g>
    <g id="xtick_6">
     <g id="line2d_11">
      <path d="M 398.680851 378 
L 398.680851 51.84 
" clip-path="url(#p4ccfe46605)" style="fill: none; stroke: #cccccc; stroke-width: 0.8; stroke-linecap: square"/>
     </g>
     <g id="line2d_12">
      <g>
       <use xlink:href="#me6083387ed" x="398.680851" y="378" style="stroke: #000000; stroke-width: 0.8"/>
      </g>
     </g>
     <g id="text_6">
      <!-- [251-300] -->
      <g transform="translate(373.887882 392.598437)scale(0.1 -0.1)">
       <defs>
        <path id="DejaVuSans-33" d="M 2597 2516 
Q 3050 2419 3304 2112 
Q 3559 1806 3559 1356 
Q 3559 666 3084 287 
Q 2609 -91 1734 -91 
Q 1441 -91 1130 -33 
Q 819 25 488 141 
L 488 750 
Q 750 597 1062 519 
Q 1375 441 1716 441 
Q 2309 441 2620 675 
Q 2931 909 2931 1356 
Q 2931 1769 2642 2001 
Q 2353 2234 1838 2234 
L 1294 2234 
L 1294 2753 
L 1863 2753 
Q 2328 2753 2575 2939 
Q 2822 3125 2822 3475 
Q 2822 3834 2567 4026 
Q 2313 4219 1838 4219 
Q 1578 4219 1281 4162 
Q 984 4106 628 3988 
L 628 4550 
Q 988 4650 1302 4700 
Q 1616 4750 1894 4750 
Q 2613 4750 3031 4423 
Q 3450 4097 3450 3541 
Q 3450 3153 3228 2886 
Q 3006 2619 2597 2516 
z
" transform="scale(0.015625)"/>
       </defs>
       <use xlink:href="#DejaVuSans-5b"/>
       <use xlink:href="#DejaVuSans-32" x="39.013672"/>
       <use xlink:href="#DejaVuSans-35" x="102.636719"/>
       <use xlink:href="#DejaVuSans-31" x="166.259766"/>
       <use xlink:href="#DejaVuSans-2d" x="229.882812"/>
       <use xlink:href="#DejaVuSans-33" x="265.966797"/>
       <use xlink:href="#DejaVuSans-30" x="329.589844"/>
       <use xlink:href="#DejaVuSans-30" x="393.212891"/>
       <use xlink:href="#DejaVuSans-5d" x="456.835938"/>
      </g>
     </g>
    </g>
    <g id="xtick_7">
     <g id="line2d_13">
      <path d="M 458.042553 378 
L 458.042553 51.84 
" clip-path="url(#p4ccfe46605)" style="fill: none; stroke: #cccccc; stroke-width: 0.8; stroke-linecap: square"/>
     </g>
     <g id="line2d_14">
      <g>
       <use xlink:href="#me6083387ed" x="458.042553" y="378" style="stroke: #000000; stroke-width: 0.8"/>
      </g>
     </g>
     <g id="text_7">
      <!-- [301-350] -->
      <g transform="translate(433.249584 392.598437)scale(0.1 -0.1)">
       <use xlink:href="#DejaVuSans-5b"/>
       <use xlink:href="#DejaVuSans-33" x="39.013672"/>
       <use xlink:href="#DejaVuSans-30" x="102.636719"/>
       <use xlink:href="#DejaVuSans-31" x="166.259766"/>
       <use xlink:href="#DejaVuSans-2d" x="229.882812"/>
       <use xlink:href="#DejaVuSans-33" x="265.966797"/>
       <use xlink:href="#DejaVuSans-35" x="329.589844"/>
       <use xlink:href="#DejaVuSans-30" x="393.212891"/>
       <use xlink:href="#DejaVuSans-5d" x="456.835938"/>
      </g>
     </g>
    </g>
    <g id="xtick_8">
     <g id="line2d_15">
      <path d="M 517.404255 378 
L 517.404255 51.84 
" clip-path="url(#p4ccfe46605)" style="fill: none; stroke: #cccccc; stroke-width: 0.8; stroke-linecap: square"/>
     </g>
     <g id="line2d_16">
      <g>
       <use xlink:href="#me6083387ed" x="517.404255" y="378" style="stroke: #000000; stroke-width: 0.8"/>
      </g>
     </g>
     <g id="text_8">
      <!-- [351-400] -->
      <g transform="translate(492.611287 392.598437)scale(0.1 -0.1)">
       <defs>
        <path id="DejaVuSans-34" d="M 2419 4116 
L 825 1625 
L 2419 1625 
L 2419 4116 
z
M 2253 4666 
L 3047 4666 
L 3047 1625 
L 3713 1625 
L 3713 1100 
L 3047 1100 
L 3047 0 
L 2419 0 
L 2419 1100 
L 313 1100 
L 313 1709 
L 2253 4666 
z
" transform="scale(0.015625)"/>
       </defs>
       <use xlink:href="#DejaVuSans-5b"/>
       <use xlink:href="#DejaVuSans-33" x="39.013672"/>
       <use xlink:href="#DejaVuSans-35" x="102.636719"/>
       <use xlink:href="#DejaVuSans-31" x="166.259766"/>
       <use xlink:href="#DejaVuSans-2d" x="229.882812"/>
       <use xlink:href="#DejaVuSans-34" x="265.966797"/>
       <use xlink:href="#DejaVuSans-30" x="329.589844"/>
       <use xlink:href="#DejaVuSans-30" x="393.212891"/>
       <use xlink:href="#DejaVuSans-5d" x="456.835938"/>
      </g>
     </g>
    </g>
    <g id="xtick_9">
     <g id="line2d_17">
      <path d="M 576.765957 378 
L 576.765957 51.84 
" clip-path="url(#p4ccfe46605)" style="fill: none; stroke: #cccccc; stroke-width: 0.8; stroke-linecap: square"/>
     </g>
     <g id="line2d_18">
      <g>
       <use xlink:href="#me6083387ed" x="576.765957" y="378" style="stroke: #000000; stroke-width: 0.8"/>
      </g>
     </g>
     <g id="text_9">
      <!-- [401-450] -->
      <g transform="translate(551.972989 392.598437)scale(0.1 -0.1)">
       <use xlink:href="#DejaVuSans-5b"/>
       <use xlink:href="#DejaVuSans-34" x="39.013672"/>
       <use xlink:href="#DejaVuSans-30" x="102.636719"/>
       <use xlink:href="#DejaVuSans-31" x="166.259766"/>
       <use xlink:href="#DejaVuSans-2d" x="229.882812"/>
       <use xlink:href="#DejaVuSans-34" x="265.966797"/>
       <use xlink:href="#DejaVuSans-35" x="329.589844"/>
       <use xlink:href="#DejaVuSans-30" x="393.212891"/>
       <use xlink:href="#DejaVuSans-5d" x="456.835938"/>
      </g>
     </g>
    </g>
    <g id="xtick_10">
     <g id="line2d_19">
      <path d="M 636.12766 378 
L 636.12766 51.84 
" clip-path="url(#p4ccfe46605)" style="fill: none; stroke: #cccccc; stroke-width: 0.8; stroke-linecap: square"/>
     </g>
     <g id="line2d_20">
      <g>
       <use xlink:href="#me6083387ed" x="636.12766" y="378" style="stroke: #000000; stroke-width: 0.8"/>
      </g>
     </g>
     <g id="text_10">
      <!-- [451-500] -->
      <g transform="translate(611.334691 392.598437)scale(0.1 -0.1)">
       <use xlink:href="#DejaVuSans-5b"/>
       <use xlink:href="#DejaVuSans-34" x="39.013672"/>
       <use xlink:href="#DejaVuSans-35" x="102.636719"/>
       <use xlink:href="#DejaVuSans-31" x="166.259766"/>
       <use xlink:href="#DejaVuSans-2d" x="229.882812"/>
       <use xlink:href="#DejaVuSans-35" x="265.966797"/>
       <use xlink:href="#DejaVuSans-30" x="329.589844"/>
       <use xlink:href="#DejaVuSans-30" x="393.212891"/>
       <use xlink:href="#DejaVuSans-5d" x="456.835938"/>
      </g>
     </g>
    </g>
    <g id="text_11">
     <!-- Range -->
     <g transform="translate(348.401094 408.556094)scale(0.13 -0.13)">
      <defs>
       <path id="DejaVuSans-52" d="M 2841 2188 
Q 3044 2119 3236 1894 
Q 3428 1669 3622 1275 
L 4263 0 
L 3584 0 
L 2988 1197 
Q 2756 1666 2539 1819 
Q 2322 1972 1947 1972 
L 1259 1972 
L 1259 0 
L 628 0 
L 628 4666 
L 2053 4666 
Q 2853 4666 3247 4331 
Q 3641 3997 3641 3322 
Q 3641 2881 3436 2590 
Q 3231 2300 2841 2188 
z
M 1259 4147 
L 1259 2491 
L 2053 2491 
Q 2509 2491 2742 2702 
Q 2975 2913 2975 3322 
Q 2975 3731 2742 3939 
Q 2509 4147 2053 4147 
L 1259 4147 
z
" transform="scale(0.015625)"/>
       <path id="DejaVuSans-61" d="M 2194 1759 
Q 1497 1759 1228 1600 
Q 959 1441 959 1056 
Q 959 750 1161 570 
Q 1363 391 1709 391 
Q 2188 391 2477 730 
Q 2766 1069 2766 1631 
L 2766 1759 
L 2194 1759 
z
M 3341 1997 
L 3341 0 
L 2766 0 
L 2766 531 
Q 2569 213 2275 61 
Q 1981 -91 1556 -91 
Q 1019 -91 701 211 
Q 384 513 384 1019 
Q 384 1609 779 1909 
Q 1175 2209 1959 2209 
L 2766 2209 
L 2766 2266 
Q 2766 2663 2505 2880 
Q 2244 3097 1772 3097 
Q 1472 3097 1187 3025 
Q 903 2953 641 2809 
L 641 3341 
Q 956 3463 1253 3523 
Q 1550 3584 1831 3584 
Q 2591 3584 2966 3190 
Q 3341 2797 3341 1997 
z
" transform="scale(0.015625)"/>
       <path id="DejaVuSans-6e" d="M 3513 2113 
L 3513 0 
L 2938 0 
L 2938 2094 
Q 2938 2591 2744 2837 
Q 2550 3084 2163 3084 
Q 1697 3084 1428 2787 
Q 1159 2491 1159 1978 
L 1159 0 
L 581 0 
L 581 3500 
L 1159 3500 
L 1159 2956 
Q 1366 3272 1645 3428 
Q 1925 3584 2291 3584 
Q 2894 3584 3203 3211 
Q 3513 2838 3513 2113 
z
" transform="scale(0.015625)"/>
       <path id="DejaVuSans-67" d="M 2906 1791 
Q 2906 2416 2648 2759 
Q 2391 3103 1925 3103 
Q 1463 3103 1205 2759 
Q 947 2416 947 1791 
Q 947 1169 1205 825 
Q 1463 481 1925 481 
Q 2391 481 2648 825 
Q 2906 1169 2906 1791 
z
M 3481 434 
Q 3481 -459 3084 -895 
Q 2688 -1331 1869 -1331 
Q 1566 -1331 1297 -1286 
Q 1028 -1241 775 -1147 
L 775 -588 
Q 1028 -725 1275 -790 
Q 1522 -856 1778 -856 
Q 2344 -856 2625 -561 
Q 2906 -266 2906 331 
L 2906 616 
Q 2728 306 2450 153 
Q 2172 0 1784 0 
Q 1141 0 747 490 
Q 353 981 353 1791 
Q 353 2603 747 3093 
Q 1141 3584 1784 3584 
Q 2172 3584 2450 3431 
Q 2728 3278 2906 2969 
L 2906 3500 
L 3481 3500 
L 3481 434 
z
" transform="scale(0.015625)"/>
       <path id="DejaVuSans-65" d="M 3597 1894 
L 3597 1613 
L 953 1613 
Q 991 1019 1311 708 
Q 1631 397 2203 397 
Q 2534 397 2845 478 
Q 3156 559 3463 722 
L 3463 178 
Q 3153 47 2828 -22 
Q 2503 -91 2169 -91 
Q 1331 -91 842 396 
Q 353 884 353 1716 
Q 353 2575 817 3079 
Q 1281 3584 2069 3584 
Q 2775 3584 3186 3129 
Q 3597 2675 3597 1894 
z
M 3022 2063 
Q 3016 2534 2758 2815 
Q 2500 3097 2075 3097 
Q 1594 3097 1305 2825 
Q 1016 2553 972 2059 
L 3022 2063 
z
" transform="scale(0.015625)"/>
      </defs>
      <use xlink:href="#DejaVuSans-52"/>
      <use xlink:href="#DejaVuSans-61" x="67.232422"/>
      <use xlink:href="#DejaVuSans-6e" x="128.511719"/>
      <use xlink:href="#DejaVuSans-67" x="191.890625"/>
      <use xlink:href="#DejaVuSans-65" x="255.367188"/>
     </g>
    </g>
   </g>
   <g id="matplotlib.axis_2">
    <g id="ytick_1">
     <g id="line2d_21">
      <path d="M 90 378 
L 648 378 
" clip-path="url(#p4ccfe46605)" style="fill: none; stroke: #cccccc; stroke-width: 0.8; stroke-linecap: square"/>
     </g>
     <g id="line2d_22">
      <defs>
       <path id="me481d92938" d="M 0 0 
L -3.5 0 
" style="stroke: #000000; stroke-width: 0.8"/>
      </defs>
      <g>
       <use xlink:href="#me481d92938" x="90" y="378" style="stroke: #000000; stroke-width: 0.8"/>
      </g>
     </g>
     <g id="text_12">
      <!-- 0.0 -->
      <g transform="translate(67.096875 381.799219)scale(0.1 -0.1)">
       <defs>
        <path id="DejaVuSans-2e" d="M 684 794 
L 1344 794 
L 1344 0 
L 684 0 
L 684 794 
z
" transform="scale(0.015625)"/>
       </defs>
       <use xlink:href="#DejaVuSans-30"/>
       <use xlink:href="#DejaVuSans-2e" x="63.623047"/>
       <use xlink:href="#DejaVuSans-30" x="95.410156"/>
      </g>
     </g>
    </g>
    <g id="ytick_2">
     <g id="line2d_23">
      <path d="M 90 318.698182 
L 648 318.698182 
" clip-path="url(#p4ccfe46605)" style="fill: none; stroke: #cccccc; stroke-width: 0.8; stroke-linecap: square"/>
     </g>
     <g id="line2d_24">
      <g>
       <use xlink:href="#me481d92938" x="90" y="318.698182" style="stroke: #000000; stroke-width: 0.8"/>
      </g>
     </g>
     <g id="text_13">
      <!-- 0.2 -->
      <g transform="translate(67.096875 322.497401)scale(0.1 -0.1)">
       <use xlink:href="#DejaVuSans-30"/>
       <use xlink:href="#DejaVuSans-2e" x="63.623047"/>
       <use xlink:href="#DejaVuSans-32" x="95.410156"/>
      </g>
     </g>
    </g>
    <g id="ytick_3">
     <g id="line2d_25">
      <path d="M 90 259.396364 
L 648 259.396364 
" clip-path="url(#p4ccfe46605)" style="fill: none; stroke: #cccccc; stroke-width: 0.8; stroke-linecap: square"/>
     </g>
     <g id="line2d_26">
      <g>
       <use xlink:href="#me481d92938" x="90" y="259.396364" style="stroke: #000000; stroke-width: 0.8"/>
      </g>
     </g>
     <g id="text_14">
      <!-- 0.4 -->
      <g transform="translate(67.096875 263.195582)scale(0.1 -0.1)">
       <use xlink:href="#DejaVuSans-30"/>
       <use xlink:href="#DejaVuSans-2e" x="63.623047"/>
       <use xlink:href="#DejaVuSans-34" x="95.410156"/>
      </g>
     </g>
    </g>
    <g id="ytick_4">
     <g id="line2d_27">
      <path d="M 90 200.094545 
L 648 200.094545 
" clip-path="url(#p4ccfe46605)" style="fill: none; stroke: #cccccc; stroke-width: 0.8; stroke-linecap: square"/>
     </g>
     <g id="line2d_28">
      <g>
       <use xlink:href="#me481d92938" x="90" y="200.094545" style="stroke: #000000; stroke-width: 0.8"/>
      </g>
     </g>
     <g id="text_15">
      <!-- 0.6 -->
      <g transform="translate(67.096875 203.893764)scale(0.1 -0.1)">
       <defs>
        <path id="DejaVuSans-36" d="M 2113 2584 
Q 1688 2584 1439 2293 
Q 1191 2003 1191 1497 
Q 1191 994 1439 701 
Q 1688 409 2113 409 
Q 2538 409 2786 701 
Q 3034 994 3034 1497 
Q 3034 2003 2786 2293 
Q 2538 2584 2113 2584 
z
M 3366 4563 
L 3366 3988 
Q 3128 4100 2886 4159 
Q 2644 4219 2406 4219 
Q 1781 4219 1451 3797 
Q 1122 3375 1075 2522 
Q 1259 2794 1537 2939 
Q 1816 3084 2150 3084 
Q 2853 3084 3261 2657 
Q 3669 2231 3669 1497 
Q 3669 778 3244 343 
Q 2819 -91 2113 -91 
Q 1303 -91 875 529 
Q 447 1150 447 2328 
Q 447 3434 972 4092 
Q 1497 4750 2381 4750 
Q 2619 4750 2861 4703 
Q 3103 4656 3366 4563 
z
" transform="scale(0.015625)"/>
       </defs>
       <use xlink:href="#DejaVuSans-30"/>
       <use xlink:href="#DejaVuSans-2e" x="63.623047"/>
       <use xlink:href="#DejaVuSans-36" x="95.410156"/>
      </g>
     </g>
    </g>
    <g id="ytick_5">
     <g id="line2d_29">
      <path d="M 90 140.792727 
L 648 140.792727 
" clip-path="url(#p4ccfe46605)" style="fill: none; stroke: #cccccc; stroke-width: 0.8; stroke-linecap: square"/>
     </g>
     <g id="line2d_30">
      <g>
       <use xlink:href="#me481d92938" x="90" y="140.792727" style="stroke: #000000; stroke-width: 0.8"/>
      </g>
     </g>
     <g id="text_16">
      <!-- 0.8 -->
      <g transform="translate(67.096875 144.591946)scale(0.1 -0.1)">
       <defs>
        <path id="DejaVuSans-38" d="M 2034 2216 
Q 1584 2216 1326 1975 
Q 1069 1734 1069 1313 
Q 1069 891 1326 650 
Q 1584 409 2034 409 
Q 2484 409 2743 651 
Q 3003 894 3003 1313 
Q 3003 1734 2745 1975 
Q 2488 2216 2034 2216 
z
M 1403 2484 
Q 997 2584 770 2862 
Q 544 3141 544 3541 
Q 544 4100 942 4425 
Q 1341 4750 2034 4750 
Q 2731 4750 3128 4425 
Q 3525 4100 3525 3541 
Q 3525 3141 3298 2862 
Q 3072 2584 2669 2484 
Q 3125 2378 3379 2068 
Q 3634 1759 3634 1313 
Q 3634 634 3220 271 
Q 2806 -91 2034 -91 
Q 1263 -91 848 271 
Q 434 634 434 1313 
Q 434 1759 690 2068 
Q 947 2378 1403 2484 
z
M 1172 3481 
Q 1172 3119 1398 2916 
Q 1625 2713 2034 2713 
Q 2441 2713 2670 2916 
Q 2900 3119 2900 3481 
Q 2900 3844 2670 4047 
Q 2441 4250 2034 4250 
Q 1625 4250 1398 4047 
Q 1172 3844 1172 3481 
z
" transform="scale(0.015625)"/>
       </defs>
       <use xlink:href="#DejaVuSans-30"/>
       <use xlink:href="#DejaVuSans-2e" x="63.623047"/>
       <use xlink:href="#DejaVuSans-38" x="95.410156"/>
      </g>
     </g>
    </g>
    <g id="ytick_6">
     <g id="line2d_31">
      <path d="M 90 81.490909 
L 648 81.490909 
" clip-path="url(#p4ccfe46605)" style="fill: none; stroke: #cccccc; stroke-width: 0.8; stroke-linecap: square"/>
     </g>
     <g id="line2d_32">
      <g>
       <use xlink:href="#me481d92938" x="90" y="81.490909" style="stroke: #000000; stroke-width: 0.8"/>
      </g>
     </g>
     <g id="text_17">
      <!-- 1.0 -->
      <g transform="translate(67.096875 85.290128)scale(0.1 -0.1)">
       <use xlink:href="#DejaVuSans-31"/>
       <use xlink:href="#DejaVuSans-2e" x="63.623047"/>
       <use xlink:href="#DejaVuSans-30" x="95.410156"/>
      </g>
     </g>
    </g>
    <g id="text_18">
     <!-- Value -->
     <g transform="translate(60.393281 232.770625)rotate(-90)scale(0.13 -0.13)">
      <defs>
       <path id="DejaVuSans-56" d="M 1831 0 
L 50 4666 
L 709 4666 
L 2188 738 
L 3669 4666 
L 4325 4666 
L 2547 0 
L 1831 0 
z
" transform="scale(0.015625)"/>
       <path id="DejaVuSans-6c" d="M 603 4863 
L 1178 4863 
L 1178 0 
L 603 0 
L 603 4863 
z
" transform="scale(0.015625)"/>
       <path id="DejaVuSans-75" d="M 544 1381 
L 544 3500 
L 1119 3500 
L 1119 1403 
Q 1119 906 1312 657 
Q 1506 409 1894 409 
Q 2359 409 2629 706 
Q 2900 1003 2900 1516 
L 2900 3500 
L 3475 3500 
L 3475 0 
L 2900 0 
L 2900 538 
Q 2691 219 2414 64 
Q 2138 -91 1772 -91 
Q 1169 -91 856 284 
Q 544 659 544 1381 
z
M 1991 3584 
L 1991 3584 
z
" transform="scale(0.015625)"/>
      </defs>
      <use xlink:href="#DejaVuSans-56"/>
      <use xlink:href="#DejaVuSans-61" x="60.658203"/>
      <use xlink:href="#DejaVuSans-6c" x="121.9375"/>
      <use xlink:href="#DejaVuSans-75" x="149.720703"/>
      <use xlink:href="#DejaVuSans-65" x="213.099609"/>
     </g>
    </g>
   </g>
   <g id="line2d_33">
    <path d="M 101.87234 285.193843 
L 161.234043 261.63044 
L 220.595745 248.180275 
L 279.957447 337.910898 
L 339.319149 333.052785 
L 398.680851 336.073237 
L 458.042553 340.148761 
L 517.404255 339.221768 
L 576.765957 336.90384 
L 636.12766 328.287412 
" clip-path="url(#p4ccfe46605)" style="fill: none; stroke: #b42b2e; stroke-opacity: 0.9; stroke-width: 1.5; stroke-linecap: square"/>
   </g>
   <g id="line2d_34">
    <path d="M 101.87234 152.7957 
L 161.234043 131.500792 
L 220.595745 124.347685 
L 279.957447 173.972229 
L 339.319149 178.944412 
L 398.680851 178.904533 
L 458.042553 167.478545 
L 517.404255 160.594378 
L 576.765957 154.372844 
L 636.12766 146.659822 
" clip-path="url(#p4ccfe46605)" style="fill: none; stroke: #006f39; stroke-opacity: 0.9; stroke-width: 1.5; stroke-linecap: square"/>
   </g>
   <g id="patch_3">
    <path d="M 90 378 
L 90 51.84 
" style="fill: none; stroke: #000000; stroke-width: 0.8; stroke-linejoin: miter; stroke-linecap: square"/>
   </g>
   <g id="patch_4">
    <path d="M 648 378 
L 648 51.84 
" style="fill: none; stroke: #000000; stroke-width: 0.8; stroke-linejoin: miter; stroke-linecap: square"/>
   </g>
   <g id="patch_5">
    <path d="M 90 378 
L 648 378 
" style="fill: none; stroke: #000000; stroke-width: 0.8; stroke-linejoin: miter; stroke-linecap: square"/>
   </g>
   <g id="patch_6">
    <path d="M 90 51.84 
L 648 51.84 
" style="fill: none; stroke: #000000; stroke-width: 0.8; stroke-linejoin: miter; stroke-linecap: square"/>
   </g>
   <g id="text_19">
    <!-- Accuracy comparison over ranges -->
    <g transform="translate(241.373438 45.84)scale(0.15 -0.15)">
     <defs>
      <path id="DejaVuSans-41" d="M 2188 4044 
L 1331 1722 
L 3047 1722 
L 2188 4044 
z
M 1831 4666 
L 2547 4666 
L 4325 0 
L 3669 0 
L 3244 1197 
L 1141 1197 
L 716 0 
L 50 0 
L 1831 4666 
z
" transform="scale(0.015625)"/>
      <path id="DejaVuSans-63" d="M 3122 3366 
L 3122 2828 
Q 2878 2963 2633 3030 
Q 2388 3097 2138 3097 
Q 1578 3097 1268 2742 
Q 959 2388 959 1747 
Q 959 1106 1268 751 
Q 1578 397 2138 397 
Q 2388 397 2633 464 
Q 2878 531 3122 666 
L 3122 134 
Q 2881 22 2623 -34 
Q 2366 -91 2075 -91 
Q 1284 -91 818 406 
Q 353 903 353 1747 
Q 353 2603 823 3093 
Q 1294 3584 2113 3584 
Q 2378 3584 2631 3529 
Q 2884 3475 3122 3366 
z
" transform="scale(0.015625)"/>
      <path id="DejaVuSans-72" d="M 2631 2963 
Q 2534 3019 2420 3045 
Q 2306 3072 2169 3072 
Q 1681 3072 1420 2755 
Q 1159 2438 1159 1844 
L 1159 0 
L 581 0 
L 581 3500 
L 1159 3500 
L 1159 2956 
Q 1341 3275 1631 3429 
Q 1922 3584 2338 3584 
Q 2397 3584 2469 3576 
Q 2541 3569 2628 3553 
L 2631 2963 
z
" transform="scale(0.015625)"/>
      <path id="DejaVuSans-79" d="M 2059 -325 
Q 1816 -950 1584 -1140 
Q 1353 -1331 966 -1331 
L 506 -1331 
L 506 -850 
L 844 -850 
Q 1081 -850 1212 -737 
Q 1344 -625 1503 -206 
L 1606 56 
L 191 3500 
L 800 3500 
L 1894 763 
L 2988 3500 
L 3597 3500 
L 2059 -325 
z
" transform="scale(0.015625)"/>
      <path id="DejaVuSans-20" transform="scale(0.015625)"/>
      <path id="DejaVuSans-6f" d="M 1959 3097 
Q 1497 3097 1228 2736 
Q 959 2375 959 1747 
Q 959 1119 1226 758 
Q 1494 397 1959 397 
Q 2419 397 2687 759 
Q 2956 1122 2956 1747 
Q 2956 2369 2687 2733 
Q 2419 3097 1959 3097 
z
M 1959 3584 
Q 2709 3584 3137 3096 
Q 3566 2609 3566 1747 
Q 3566 888 3137 398 
Q 2709 -91 1959 -91 
Q 1206 -91 779 398 
Q 353 888 353 1747 
Q 353 2609 779 3096 
Q 1206 3584 1959 3584 
z
" transform="scale(0.015625)"/>
      <path id="DejaVuSans-6d" d="M 3328 2828 
Q 3544 3216 3844 3400 
Q 4144 3584 4550 3584 
Q 5097 3584 5394 3201 
Q 5691 2819 5691 2113 
L 5691 0 
L 5113 0 
L 5113 2094 
Q 5113 2597 4934 2840 
Q 4756 3084 4391 3084 
Q 3944 3084 3684 2787 
Q 3425 2491 3425 1978 
L 3425 0 
L 2847 0 
L 2847 2094 
Q 2847 2600 2669 2842 
Q 2491 3084 2119 3084 
Q 1678 3084 1418 2786 
Q 1159 2488 1159 1978 
L 1159 0 
L 581 0 
L 581 3500 
L 1159 3500 
L 1159 2956 
Q 1356 3278 1631 3431 
Q 1906 3584 2284 3584 
Q 2666 3584 2933 3390 
Q 3200 3197 3328 2828 
z
" transform="scale(0.015625)"/>
      <path id="DejaVuSans-70" d="M 1159 525 
L 1159 -1331 
L 581 -1331 
L 581 3500 
L 1159 3500 
L 1159 2969 
Q 1341 3281 1617 3432 
Q 1894 3584 2278 3584 
Q 2916 3584 3314 3078 
Q 3713 2572 3713 1747 
Q 3713 922 3314 415 
Q 2916 -91 2278 -91 
Q 1894 -91 1617 61 
Q 1341 213 1159 525 
z
M 3116 1747 
Q 3116 2381 2855 2742 
Q 2594 3103 2138 3103 
Q 1681 3103 1420 2742 
Q 1159 2381 1159 1747 
Q 1159 1113 1420 752 
Q 1681 391 2138 391 
Q 2594 391 2855 752 
Q 3116 1113 3116 1747 
z
" transform="scale(0.015625)"/>
      <path id="DejaVuSans-69" d="M 603 3500 
L 1178 3500 
L 1178 0 
L 603 0 
L 603 3500 
z
M 603 4863 
L 1178 4863 
L 1178 4134 
L 603 4134 
L 603 4863 
z
" transform="scale(0.015625)"/>
      <path id="DejaVuSans-73" d="M 2834 3397 
L 2834 2853 
Q 2591 2978 2328 3040 
Q 2066 3103 1784 3103 
Q 1356 3103 1142 2972 
Q 928 2841 928 2578 
Q 928 2378 1081 2264 
Q 1234 2150 1697 2047 
L 1894 2003 
Q 2506 1872 2764 1633 
Q 3022 1394 3022 966 
Q 3022 478 2636 193 
Q 2250 -91 1575 -91 
Q 1294 -91 989 -36 
Q 684 19 347 128 
L 347 722 
Q 666 556 975 473 
Q 1284 391 1588 391 
Q 1994 391 2212 530 
Q 2431 669 2431 922 
Q 2431 1156 2273 1281 
Q 2116 1406 1581 1522 
L 1381 1569 
Q 847 1681 609 1914 
Q 372 2147 372 2553 
Q 372 3047 722 3315 
Q 1072 3584 1716 3584 
Q 2034 3584 2315 3537 
Q 2597 3491 2834 3397 
z
" transform="scale(0.015625)"/>
      <path id="DejaVuSans-76" d="M 191 3500 
L 800 3500 
L 1894 563 
L 2988 3500 
L 3597 3500 
L 2284 0 
L 1503 0 
L 191 3500 
z
" transform="scale(0.015625)"/>
     </defs>
     <use xlink:href="#DejaVuSans-41"/>
     <use xlink:href="#DejaVuSans-63" x="66.658203"/>
     <use xlink:href="#DejaVuSans-63" x="121.638672"/>
     <use xlink:href="#DejaVuSans-75" x="176.619141"/>
     <use xlink:href="#DejaVuSans-72" x="239.998047"/>
     <use xlink:href="#DejaVuSans-61" x="281.111328"/>
     <use xlink:href="#DejaVuSans-63" x="342.390625"/>
     <use xlink:href="#DejaVuSans-79" x="397.371094"/>
     <use xlink:href="#DejaVuSans-20" x="456.550781"/>
     <use xlink:href="#DejaVuSans-63" x="488.337891"/>
     <use xlink:href="#DejaVuSans-6f" x="543.318359"/>
     <use xlink:href="#DejaVuSans-6d" x="604.5"/>
     <use xlink:href="#DejaVuSans-70" x="701.912109"/>
     <use xlink:href="#DejaVuSans-61" x="765.388672"/>
     <use xlink:href="#DejaVuSans-72" x="826.667969"/>
     <use xlink:href="#DejaVuSans-69" x="867.78125"/>
     <use xlink:href="#DejaVuSans-73" x="895.564453"/>
     <use xlink:href="#DejaVuSans-6f" x="947.664062"/>
     <use xlink:href="#DejaVuSans-6e" x="1008.845703"/>
     <use xlink:href="#DejaVuSans-20" x="1072.224609"/>
     <use xlink:href="#DejaVuSans-6f" x="1104.011719"/>
     <use xlink:href="#DejaVuSans-76" x="1165.193359"/>
     <use xlink:href="#DejaVuSans-65" x="1224.373047"/>
     <use xlink:href="#DejaVuSans-72" x="1285.896484"/>
     <use xlink:href="#DejaVuSans-20" x="1327.009766"/>
     <use xlink:href="#DejaVuSans-72" x="1358.796875"/>
     <use xlink:href="#DejaVuSans-61" x="1399.910156"/>
     <use xlink:href="#DejaVuSans-6e" x="1461.189453"/>
     <use xlink:href="#DejaVuSans-67" x="1524.568359"/>
     <use xlink:href="#DejaVuSans-65" x="1588.044922"/>
     <use xlink:href="#DejaVuSans-73" x="1649.568359"/>
    </g>
   </g>
   <g id="legend_1">
    <g id="patch_7">
     <path d="M 470.351562 89.19625 
L 641 89.19625 
Q 643 89.19625 643 87.19625 
L 643 58.84 
Q 643 56.84 641 56.84 
L 470.351562 56.84 
Q 468.351562 56.84 468.351562 58.84 
L 468.351562 87.19625 
Q 468.351562 89.19625 470.351562 89.19625 
z
" style="fill: #ffffff; opacity: 0.8; stroke: #cccccc; stroke-linejoin: miter"/>
    </g>
    <g id="line2d_35">
     <path d="M 472.351562 64.938437 
L 482.351562 64.938437 
L 492.351562 64.938437 
" style="fill: none; stroke: #b42b2e; stroke-opacity: 0.9; stroke-width: 1.5; stroke-linecap: square"/>
    </g>
    <g id="text_20">
     <!-- Accuracy before fine-tuning -->
     <g transform="translate(500.351562 68.438437)scale(0.1 -0.1)">
      <defs>
       <path id="DejaVuSans-62" d="M 3116 1747 
Q 3116 2381 2855 2742 
Q 2594 3103 2138 3103 
Q 1681 3103 1420 2742 
Q 1159 2381 1159 1747 
Q 1159 1113 1420 752 
Q 1681 391 2138 391 
Q 2594 391 2855 752 
Q 3116 1113 3116 1747 
z
M 1159 2969 
Q 1341 3281 1617 3432 
Q 1894 3584 2278 3584 
Q 2916 3584 3314 3078 
Q 3713 2572 3713 1747 
Q 3713 922 3314 415 
Q 2916 -91 2278 -91 
Q 1894 -91 1617 61 
Q 1341 213 1159 525 
L 1159 0 
L 581 0 
L 581 4863 
L 1159 4863 
L 1159 2969 
z
" transform="scale(0.015625)"/>
       <path id="DejaVuSans-66" d="M 2375 4863 
L 2375 4384 
L 1825 4384 
Q 1516 4384 1395 4259 
Q 1275 4134 1275 3809 
L 1275 3500 
L 2222 3500 
L 2222 3053 
L 1275 3053 
L 1275 0 
L 697 0 
L 697 3053 
L 147 3053 
L 147 3500 
L 697 3500 
L 697 3744 
Q 697 4328 969 4595 
Q 1241 4863 1831 4863 
L 2375 4863 
z
" transform="scale(0.015625)"/>
       <path id="DejaVuSans-74" d="M 1172 4494 
L 1172 3500 
L 2356 3500 
L 2356 3053 
L 1172 3053 
L 1172 1153 
Q 1172 725 1289 603 
Q 1406 481 1766 481 
L 2356 481 
L 2356 0 
L 1766 0 
Q 1100 0 847 248 
Q 594 497 594 1153 
L 594 3053 
L 172 3053 
L 172 3500 
L 594 3500 
L 594 4494 
L 1172 4494 
z
" transform="scale(0.015625)"/>
      </defs>
      <use xlink:href="#DejaVuSans-41"/>
      <use xlink:href="#DejaVuSans-63" x="66.658203"/>
      <use xlink:href="#DejaVuSans-63" x="121.638672"/>
      <use xlink:href="#DejaVuSans-75" x="176.619141"/>
      <use xlink:href="#DejaVuSans-72" x="239.998047"/>
      <use xlink:href="#DejaVuSans-61" x="281.111328"/>
      <use xlink:href="#DejaVuSans-63" x="342.390625"/>
      <use xlink:href="#DejaVuSans-79" x="397.371094"/>
      <use xlink:href="#DejaVuSans-20" x="456.550781"/>
      <use xlink:href="#DejaVuSans-62" x="488.337891"/>
      <use xlink:href="#DejaVuSans-65" x="551.814453"/>
      <use xlink:href="#DejaVuSans-66" x="613.337891"/>
      <use xlink:href="#DejaVuSans-6f" x="648.542969"/>
      <use xlink:href="#DejaVuSans-72" x="709.724609"/>
      <use xlink:href="#DejaVuSans-65" x="748.587891"/>
      <use xlink:href="#DejaVuSans-20" x="810.111328"/>
      <use xlink:href="#DejaVuSans-66" x="841.898438"/>
      <use xlink:href="#DejaVuSans-69" x="877.103516"/>
      <use xlink:href="#DejaVuSans-6e" x="904.886719"/>
      <use xlink:href="#DejaVuSans-65" x="968.265625"/>
      <use xlink:href="#DejaVuSans-2d" x="1029.789062"/>
      <use xlink:href="#DejaVuSans-74" x="1065.873047"/>
      <use xlink:href="#DejaVuSans-75" x="1105.082031"/>
      <use xlink:href="#DejaVuSans-6e" x="1168.460938"/>
      <use xlink:href="#DejaVuSans-69" x="1231.839844"/>
      <use xlink:href="#DejaVuSans-6e" x="1259.623047"/>
      <use xlink:href="#DejaVuSans-67" x="1323.001953"/>
     </g>
    </g>
    <g id="line2d_36">
     <path d="M 472.351562 79.616562 
L 482.351562 79.616562 
L 492.351562 79.616562 
" style="fill: none; stroke: #006f39; stroke-opacity: 0.9; stroke-width: 1.5; stroke-linecap: square"/>
    </g>
    <g id="text_21">
     <!-- Accuracy after fine-tuning -->
     <g transform="translate(500.351562 83.116562)scale(0.1 -0.1)">
      <use xlink:href="#DejaVuSans-41"/>
      <use xlink:href="#DejaVuSans-63" x="66.658203"/>
      <use xlink:href="#DejaVuSans-63" x="121.638672"/>
      <use xlink:href="#DejaVuSans-75" x="176.619141"/>
      <use xlink:href="#DejaVuSans-72" x="239.998047"/>
      <use xlink:href="#DejaVuSans-61" x="281.111328"/>
      <use xlink:href="#DejaVuSans-63" x="342.390625"/>
      <use xlink:href="#DejaVuSans-79" x="397.371094"/>
      <use xlink:href="#DejaVuSans-20" x="456.550781"/>
      <use xlink:href="#DejaVuSans-61" x="488.337891"/>
      <use xlink:href="#DejaVuSans-66" x="549.617188"/>
      <use xlink:href="#DejaVuSans-74" x="583.072266"/>
      <use xlink:href="#DejaVuSans-65" x="622.28125"/>
      <use xlink:href="#DejaVuSans-72" x="683.804688"/>
      <use xlink:href="#DejaVuSans-20" x="724.917969"/>
      <use xlink:href="#DejaVuSans-66" x="756.705078"/>
      <use xlink:href="#DejaVuSans-69" x="791.910156"/>
      <use xlink:href="#DejaVuSans-6e" x="819.693359"/>
      <use xlink:href="#DejaVuSans-65" x="883.072266"/>
      <use xlink:href="#DejaVuSans-2d" x="944.595703"/>
      <use xlink:href="#DejaVuSans-74" x="980.679688"/>
      <use xlink:href="#DejaVuSans-75" x="1019.888672"/>
      <use xlink:href="#DejaVuSans-6e" x="1083.267578"/>
      <use xlink:href="#DejaVuSans-69" x="1146.646484"/>
      <use xlink:href="#DejaVuSans-6e" x="1174.429688"/>
      <use xlink:href="#DejaVuSans-67" x="1237.808594"/>
     </g>
    </g>
   </g>
  </g>
 </g>
 <defs>
  <clipPath id="p4ccfe46605">
   <rect x="90" y="51.84" width="558" height="326.16"/>
  </clipPath>
 </defs>
</svg>
